<svg width="493" height="532" viewBox="0 0 493 532" fill="none" xmlns="http://www.w3.org/2000/svg">
<path fill-rule="evenodd" clip-rule="evenodd" d="M266 0C342 0 395.833 25.3333 427.5 76C441.94 99.0533 449.16 122.107 449.16 145.16C449.16 172.773 438.773 200.387 418 228C468.667 253.333 492.885 295.835 492.885 346.502C492.885 473.169 430.667 532 304 532H38V38L0 0H266ZM161.583 422.473H269.605C320.992 422.473 346.878 385.754 346.878 328.925C346.878 275.712 290.499 239.031 269.489 239.099C269.493 239.091 281.062 239.078 292.631 239.065C304.2 239.052 315.768 239.039 315.773 239.031H259.481C286.774 232.641 300.555 210.433 300.555 183.459C300.555 142.051 269.77 126.045 237.932 126.045L161.583 126.001V422.473Z" fill="black"/>
</svg>
