<svg width="1057" height="145" viewBox="0 0 1057 145" fill="none" xmlns="http://www.w3.org/2000/svg">
<path fill-rule="evenodd" clip-rule="evenodd" d="M72.1844 0C92.8086 0 107.417 6.87471 116.011 20.6241C119.929 26.8801 121.889 33.1361 121.889 39.3921C121.889 46.8855 119.07 54.3789 113.433 61.8724C127.182 68.7471 133.754 80.2809 133.754 94.0303C133.754 128.404 116.87 144.369 82.4965 144.369H10.3121V10.3121L0 0H72.1844ZM43.8489 114.647H73.1626C87.1077 114.647 94.1324 104.682 94.1324 89.2603C94.1324 74.8199 78.8327 64.8658 73.1311 64.8844C73.1323 64.8821 76.2718 64.8786 79.4112 64.8751C82.5507 64.8716 85.6901 64.8682 85.6913 64.8658H70.4154C77.822 63.1319 81.5615 57.1051 81.5615 49.7852C81.5615 38.5483 73.2075 34.2047 64.5676 34.2047L43.8489 34.1928V114.647Z" fill="black"/>
<path d="M239.883 0L291.443 144.369H250.195L246.792 134.057L232.974 92.8086L219.259 51.5603L182.96 144.369H138.781L195.85 7.11532L188.735 0H239.883Z" fill="black"/>
<path d="M296.472 144.314L368.494 100.412L368.7 63.1416H347.916C341.057 63.1416 337.627 59.6617 337.627 52.7018C337.627 45.7419 341.057 42.262 347.916 42.262H378.783V144.314H399.36H419.938V10.9425L430.227 0.502686H347.916C313.62 0.502686 296.472 17.9024 296.472 52.7018C296.472 80.5413 303.331 96.2359 317.05 99.7854L296.472 144.314Z" fill="black"/>
<path d="M502.133 144.314L430.112 100.412L429.906 63.1416H450.689C457.548 63.1416 460.978 59.6617 460.978 52.7018C460.978 45.7419 457.548 42.262 450.689 42.262H419.823V144.314H399.245H378.668V10.9425L368.379 0.502686H450.689C484.985 0.502686 502.133 17.9024 502.133 52.7018C502.133 80.5413 495.274 96.2359 481.556 99.7854L502.133 144.314Z" fill="black"/>
<path d="M608.262 0L659.822 144.369H618.574L615.171 134.057L601.352 92.8086L587.637 51.5603L551.339 144.369H507.16L564.229 7.11532L557.114 0H608.262Z" fill="black"/>
<path d="M737.032 0H778.28L767.968 41.2483H737.032C728.507 41.2483 721.22 44.2731 715.171 50.3229C709.121 56.3726 706.096 63.6598 706.096 72.1844C706.096 80.7091 709.121 87.9963 715.171 94.046C721.22 100.096 728.507 103.121 737.032 103.121H767.968L778.28 144.369H737.032C717.095 144.369 700.081 137.322 685.987 123.229C671.894 109.136 664.848 92.1211 664.848 72.1844C664.848 52.2478 671.894 35.2329 685.987 21.1397C700.081 7.04658 717.095 0 737.032 0Z" fill="black"/>
<path d="M834.873 91.0555V144.369H793.625V10.3121L783.312 0H834.873V67.0284L845.185 51.5603L876.121 0H927.681L876.84 80.4537L897.959 110.121L923.855 144.369H870.909L834.873 91.0555Z" fill="black"/>
<path d="M984.271 92.8086C949.898 92.8086 932.711 77.203 932.711 45.9918C932.711 15.3306 949.898 0 984.271 0H1046.14L1004.9 41.2483H984.271C977.397 41.2483 973.959 42.8294 973.959 45.9918C973.959 49.7041 977.397 51.5603 984.271 51.5603H1004.9C1039.27 51.5603 1056.46 66.8909 1056.46 97.5521C1056.46 128.763 1039.27 144.369 1004.9 144.369H943.023L984.271 103.121H1004.9C1011.77 103.121 1015.21 101.264 1015.21 97.5521C1015.21 94.3898 1011.77 92.8086 1004.9 92.8086H984.271Z" fill="black"/>
</svg>
